<?xml version="1.0" encoding="UTF-8" standalone="no"?>
<!-- Created with Inkscape (http://www.inkscape.org/) -->

<svg
   xmlns:dc="http://purl.org/dc/elements/1.1/"
   xmlns:cc="http://creativecommons.org/ns#"
   xmlns:rdf="http://www.w3.org/1999/02/22-rdf-syntax-ns#"
   xmlns:svg="http://www.w3.org/2000/svg"
   xmlns="http://www.w3.org/2000/svg"
   xmlns:sodipodi="http://sodipodi.sourceforge.net/DTD/sodipodi-0.dtd"
   xmlns:inkscape="http://www.inkscape.org/namespaces/inkscape"
   width="195.54756mm"
   height="98.733597mm"
   viewBox="0 0 195.54756 98.733597"
   version="1.1"
   id="svg846"
   inkscape:version="0.92.4 (5da689c313, 2019-01-14)"
   sodipodi:docname="Jas0nhuang dot.svg">
  <defs
     id="defs840" />
  <sodipodi:namedview
     id="base"
     pagecolor="#ffffff"
     bordercolor="#666666"
     borderopacity="1.0"
     inkscape:pageopacity="0.0"
     inkscape:pageshadow="2"
     inkscape:zoom="0.7"
     inkscape:cx="309.9625"
     inkscape:cy="201.16501"
     inkscape:document-units="mm"
     inkscape:current-layer="g834"
     showgrid="false"
     fit-margin-top="5"
     fit-margin-left="5"
     fit-margin-right="5"
     fit-margin-bottom="5"
     inkscape:window-width="1278"
     inkscape:window-height="974"
     inkscape:window-x="-10"
     inkscape:window-y="0"
     inkscape:window-maximized="0" />
  <metadata
     id="metadata843">
    <rdf:RDF>
      <cc:Work
         rdf:about="">
        <dc:format>image/svg+xml</dc:format>
        <dc:type
           rdf:resource="http://purl.org/dc/dcmitype/StillImage" />
        <dc:title></dc:title>
      </cc:Work>
    </rdf:RDF>
  </metadata>
  <g
     inkscape:label="圖層 1"
     inkscape:groupmode="layer"
     id="layer1"
     transform="translate(275.23832,-80.769884)">
    <g
       id="g834">
      <g
         id="g850">
        <path
           style="fill:#333333;fill-opacity:1;stroke:none;stroke-width:0.55266249px;stroke-linecap:butt;stroke-linejoin:miter;stroke-opacity:1"
           d="m -225.87152,85.769884 c -24.50312,-3.3e-5 -44.36683,19.863676 -44.3668,44.366796 -3e-5,24.50312 19.86368,44.36683 44.3668,44.3668 13.07841,-4.7e-4 25.49035,-5.77124 33.9199,-15.77061 v -7.00836 h -13.96453 v 15.74839 h -4.65449 v -15.74839 -3.93723 -15.74839 h 4.65449 v 15.74839 h 13.96453 v -15.74839 h 4.65501 v 19.95641 c 3.78622,-6.66364 5.78166,-14.19446 5.79189,-21.85862 -0.002,-8.456 -2.42089,-16.73527 -6.97115,-23.86262 v 13.9702 c 0,9.84281 -11.63702,9.84281 -11.63702,9.84281 -11.63677,0 -11.63649,-9.84281 -11.63649,-9.84281 h 4.65449 c 0,0 -6e-5,5.90559 6.982,5.90559 0,0 6.98201,9e-5 6.98201,-5.90559 v -19.97759 c -0.51759,-0.572761 -1.05003,-1.131918 -1.5968,-1.676897 h -12.36721 v -3.936711 h 7.76594 c -7.65727,-5.747416 -16.96832,-8.863605 -26.54257,-8.883178 z m 47.48171,2.023575 c -66.82973,60.887791 -33.41487,30.443891 0,0 z m -13.56181,79.679441 c -57.78853,7.76816 -28.89426,3.88408 0,0 z"
           id="path868-1"
           inkscape:connector-curvature="0"
           sodipodi:nodetypes="cccccccccccccccccccsccccscccccccccc" />
        <path
           d="m -167.99381,126.33391 -1.66658,-6.21461 h -10.55502 l -1.71287,6.21461 h -5.64786 l 8.95787,-31.482532 h 7.96256 l 8.95788,31.482532 z m -6.87465,-25.7015 -3.98127,14.64528 h 7.91626 z"
           style="font-style:normal;font-variant:normal;font-weight:bold;font-stretch:normal;font-size:96px;line-height:1.25;font-family:Consolas;-inkscape-font-specification:'Consolas, Bold';font-variant-ligatures:normal;font-variant-caps:normal;font-variant-numeric:normal;font-feature-settings:normal;text-align:start;letter-spacing:0px;word-spacing:0px;writing-mode:lr-tb;text-anchor:start;fill:#333333;fill-opacity:1;stroke:none;stroke-width:0.50373584"
           id="path824"
           inkscape:connector-curvature="0" />
        <path
           d="m -137.94905,116.8193 q 0,2.57737 -0.92587,4.4803 -0.90273,1.90292 -2.54617,3.15548 -1.64343,1.22847 -3.91184,1.83066 -2.2684,0.60219 -4.95345,0.60219 -2.38414,0 -4.60625,-0.28905 -2.2221,-0.28905 -4.39792,-0.96351 v -5.85329 q 1.06476,0.3854 2.22211,0.72262 1.15735,0.33723 2.3147,0.6022 1.18049,0.24087 2.33784,0.3854 1.15735,0.14453 2.24526,0.14453 1.62028,0 2.75449,-0.28906 1.1342,-0.28905 1.85176,-0.79489 0.71755,-0.50584 1.04161,-1.20438 0.32405,-0.69854 0.32405,-1.54161 0,-1.1562 -0.64811,-1.92701 -0.62497,-0.79489 -1.66658,-1.39708 -1.04161,-0.60219 -2.38414,-1.08395 -1.31938,-0.48175 -2.7082,-1.03576 -1.36566,-0.55402 -2.70819,-1.25256 -1.31938,-0.69854 -2.36099,-1.73431 -1.04162,-1.03577 -1.68973,-2.45694 -0.62497,-1.44526 -0.62497,-3.46862 0,-1.85475 0.64812,-3.516792 0.64811,-1.662046 2.03693,-2.890516 1.38882,-1.252556 3.56463,-1.975185 2.17582,-0.746717 5.25436,-0.746717 0.90274,0 1.87491,0.09635 0.99532,0.07226 1.94435,0.216788 0.97217,0.120438 1.85175,0.313139 0.90273,0.168614 1.64344,0.361315 v 5.419718 q -0.74071,-0.28905 -1.62029,-0.52993 -0.87959,-0.240875 -1.82861,-0.409488 -0.92588,-0.192702 -1.87491,-0.289052 -0.94902,-0.09635 -1.80546,-0.09635 -1.50455,0 -2.54617,0.264964 -1.04161,0.240877 -1.71287,0.698546 -0.67126,0.43357 -0.97217,1.08394 -0.30091,0.65037 -0.30091,1.44526 0,0.98759 0.62496,1.71022 0.64812,0.69854 1.68973,1.27664 1.06476,0.55402 2.38414,1.05986 1.34252,0.48175 2.73134,1.05986 1.41197,0.55401 2.73134,1.27664 1.34253,0.72263 2.38414,1.7584 1.06476,1.03577 1.68973,2.45694 0.64811,1.39708 0.64811,3.32409 z"
           style="font-style:normal;font-variant:normal;font-weight:bold;font-stretch:normal;font-size:96px;line-height:1.25;font-family:Consolas;-inkscape-font-specification:'Consolas, Bold';font-variant-ligatures:normal;font-variant-caps:normal;font-variant-numeric:normal;font-feature-settings:normal;text-align:start;letter-spacing:0px;word-spacing:0px;writing-mode:lr-tb;text-anchor:start;fill:#333333;fill-opacity:1;stroke:none;stroke-width:0.50373584"
           id="path826"
           inkscape:connector-curvature="0" />
        <path
           d="m -110.61247,110.46016 q 0,3.87811 -0.81015,6.93724 -0.81014,3.05913 -2.38414,5.17884 -1.55084,2.09563 -3.7961,3.20366 -2.24526,1.10803 -5.13862,1.10803 -2.49988,0 -4.60625,-0.91533 -2.10638,-0.91533 -3.63408,-2.86643 -1.5277,-1.97519 -2.38414,-5.03431 -0.85643,-3.05913 -0.85643,-7.32264 0,-3.87811 0.81014,-6.93724 0.83329,-3.05913 2.38414,-5.154756 1.55085,-2.119712 3.81925,-3.227743 2.2684,-1.108031 5.13862,-1.108031 2.49988,0 4.60625,0.91533 2.10638,0.91533 3.61093,2.866428 1.5277,1.951102 2.38414,5.010232 0.85644,3.05913 0.85644,7.34672 z m -17.91576,0.0964 q 0,0.48176 0,0.91533 0,0.40949 0.0463,0.84307 l 11.34202,-8.52702 q -0.81015,-2.38468 -2.15267,-3.51679 -1.31938,-1.156211 -3.12484,-1.156211 -1.29623,0 -2.40729,0.698541 -1.11105,0.67445 -1.94434,2.09562 -0.81015,1.42117 -1.29623,3.56497 -0.46294,2.1438 -0.46294,5.08249 z m 12.2216,0.0964 q 0,-0.40949 -0.0232,-0.81897 -0.0232,-0.43358 -0.0232,-0.81898 l -11.27257,8.47884 q 0.7407,2.3365 2.08323,3.46862 1.34252,1.13212 3.12484,1.13212 1.29623,0 2.40728,-0.69854 1.1342,-0.69854 1.94435,-2.09563 0.83329,-1.42117 1.29623,-3.56496 0.46294,-2.16789 0.46294,-5.0825 z"
           style="font-style:normal;font-variant:normal;font-weight:bold;font-stretch:normal;font-size:96px;line-height:1.25;font-family:Consolas;-inkscape-font-specification:'Consolas, Bold';font-variant-ligatures:normal;font-variant-caps:normal;font-variant-numeric:normal;font-feature-settings:normal;text-align:start;letter-spacing:0px;word-spacing:0px;writing-mode:lr-tb;text-anchor:start;fill:#333333;fill-opacity:1;stroke:none;stroke-width:0.50373584"
           id="path828"
           inkscape:connector-curvature="0" />
        <path
           d="m -92.210637,126.33391 -8.101443,-18.78835 -1.66658,-4.04672 v 13.05549 9.77958 h -5.18492 V 94.851378 h 6.99039 l 8.263466,18.908792 1.458257,3.68541 v -13.89857 -8.695632 h 5.184921 v 31.482532 z"
           style="font-style:normal;font-variant:normal;font-weight:bold;font-stretch:normal;font-size:96px;line-height:1.25;font-family:Consolas;-inkscape-font-specification:'Consolas, Bold';font-variant-ligatures:normal;font-variant-caps:normal;font-variant-numeric:normal;font-feature-settings:normal;text-align:start;letter-spacing:0px;word-spacing:0px;writing-mode:lr-tb;text-anchor:start;fill:#333333;fill-opacity:1;stroke:none;stroke-width:0.50373584"
           id="path830"
           inkscape:connector-curvature="0" />
        <path
           inkscape:connector-curvature="0"
           id="path846"
           style="font-style:normal;font-variant:normal;font-weight:bold;font-stretch:normal;font-size:25.39999962px;line-height:1.25;font-family:Consolas;-inkscape-font-specification:'Consolas Bold';letter-spacing:0px;word-spacing:0px;fill:#333333;fill-opacity:1;stroke:none;stroke-width:0.51736909"
           d="m -164.74276,152.56018 q 0,3.1032 -0.8055,5.46163 -0.78181,2.3336 -2.27435,3.89761 -1.46883,1.56402 -3.60102,2.35843 -2.13222,0.79442 -4.78561,0.79442 -2.98506,0 -5.11725,-0.79442 -2.13219,-0.79441 -3.45891,-2.28395 -1.32669,-1.48953 -1.91897,-3.62453 -0.59226,-2.135 -0.59226,-4.79134 v -21.52378 h 5.82798 v 21.1514 q 0,1.63848 0.26061,2.90459 0.2843,1.2661 0.94764,2.15982 0.68704,0.8689 1.70575,1.31576 1.01872,0.44686 2.55863,0.44686 1.44517,0 2.44017,-0.37238 0.99503,-0.39721 1.65839,-1.24128 0.66334,-0.8689 0.99503,-2.20948 0.33166,-1.34058 0.33166,-3.25215 v -20.90314 h 5.82801 z" />
        <path
           inkscape:connector-curvature="0"
           id="path848"
           style="font-style:normal;font-variant:normal;font-weight:bold;font-stretch:normal;font-size:25.39999962px;line-height:1.25;font-family:Consolas;-inkscape-font-specification:'Consolas Bold';letter-spacing:0px;word-spacing:0px;fill:#333333;fill-opacity:1;stroke:none;stroke-width:0.51736909"
           d="m -142.49688,164.50128 -1.70575,-6.405 h -10.80312 l -1.75313,6.405 h -5.78063 l 9.16844,-32.44703 h 8.14972 l 9.16842,32.44703 z m -7.03624,-26.48889 -4.07486,15.09395 h 8.10234 z" />
        <path
           inkscape:connector-curvature="0"
           id="path850"
           style="font-style:normal;font-variant:normal;font-weight:bold;font-stretch:normal;font-size:25.39999962px;line-height:1.25;font-family:Consolas;-inkscape-font-specification:'Consolas Bold';letter-spacing:0px;word-spacing:0px;fill:#333333;fill-opacity:1;stroke:none;stroke-width:0.51736909"
           d="m -118.37941,164.50128 -8.29186,-19.36395 -1.70576,-4.1707 v 13.45547 10.07918 h -5.30678 v -32.44703 h 7.15469 l 8.45769,19.48808 1.49254,3.79831 v -14.32435 -8.96204 h 5.30681 v 32.44703 z" />
        <path
           inkscape:connector-curvature="0"
           id="path852"
           style="font-style:normal;font-variant:normal;font-weight:bold;font-stretch:normal;font-size:25.39999962px;line-height:1.25;font-family:Consolas;-inkscape-font-specification:'Consolas Bold';letter-spacing:0px;word-spacing:0px;fill:#333333;fill-opacity:1;stroke:none;stroke-width:0.51736909"
           d="m -95.70709,150.77274 v -5.03959 h 11.016334 v 17.30343 q -2.132192,1.04267 -4.453915,1.53918 -2.321722,0.49651 -5.046193,0.49651 -3.221984,0 -5.804297,-1.04267 -2.558629,-1.04268 -4.359149,-3.1032 -1.80052,-2.06052 -2.77186,-5.11407 -0.94764,-3.05354 -0.94764,-7.07529 0,-4.04657 0.99503,-7.24907 1.01871,-3.2025 2.93769,-5.41197 1.94266,-2.23431 4.738208,-3.40111 2.819236,-1.1668 6.420262,-1.1668 2.132192,0 4.145932,0.39721 2.037426,0.37238 4.051166,1.01785 v 6.03261 q -1.75313,-0.86889 -3.885322,-1.41505 -2.108505,-0.57099 -4.264384,-0.57099 -2.179584,0 -3.861635,0.79442 -1.658385,0.79441 -2.79555,2.25912 -1.113477,1.46471 -1.705757,3.59971 -0.56859,2.135 -0.56859,4.81616 0,2.58187 0.45014,4.66721 0.45012,2.06053 1.445146,3.52524 1.018713,1.43988 2.606019,2.20947 1.587305,0.76959 3.861635,0.76959 0.544906,0 0.947635,-0.0248 0.402748,-0.0497 0.758122,-0.12412 0.355356,-0.0745 0.663358,-0.17379 0.331669,-0.0993 0.687025,-0.22343 v -8.29174 z" />
      </g>
    </g>
  </g>
</svg>
